<?xml version="1.0" encoding="utf-8" standalone="no"?>
<!DOCTYPE svg PUBLIC "-//W3C//DTD SVG 1.1//EN"
  "http://www.w3.org/Graphics/SVG/1.1/DTD/svg11.dtd">
<svg xmlns:xlink="http://www.w3.org/1999/xlink" width="369.724391pt" height="257.851387pt" viewBox="0 0 369.724391 257.851387" xmlns="http://www.w3.org/2000/svg" version="1.1">
 <metadata>
  <rdf:RDF xmlns:dc="http://purl.org/dc/elements/1.1/" xmlns:cc="http://creativecommons.org/ns#" xmlns:rdf="http://www.w3.org/1999/02/22-rdf-syntax-ns#">
   <cc:Work>
    <dc:type rdf:resource="http://purl.org/dc/dcmitype/StillImage"/>
    <dc:date>2026-06-11T21:36:55.178096</dc:date>
    <dc:format>image/svg+xml</dc:format>
    <dc:creator>
     <cc:Agent>
      <dc:title>Matplotlib v3.9.1, https://matplotlib.org/</dc:title>
     </cc:Agent>
    </dc:creator>
   </cc:Work>
  </rdf:RDF>
 </metadata>
 <defs>
  <style type="text/css">*{stroke-linejoin: round; stroke-linecap: butt}</style>
 </defs>
 <g id="figure_1">
  <g id="patch_1">
   <path d="M 0 257.851387 
L 369.724391 257.851387 
L 369.724391 0 
L 0 0 
z
" style="fill: #ffffff"/>
  </g>
  <g id="axes_1">
   <g id="patch_2">
    <path d="M 7.2 231.261756 
L 325.26 231.261756 
L 325.26 26.133756 
L 7.2 26.133756 
z
" style="fill: #ffffff"/>
   </g>
   <g id="PathCollection_1"/>
   <g id="PathCollection_2"/>
   <g id="PathCollection_3"/>
   <g id="matplotlib.axis_1">
    <g id="xtick_1">
     <g id="line2d_1">
      <path d="M 22.167529 231.261756 
L 22.167529 26.133756 
" clip-path="url(#p56422a4653)" style="fill: none; stroke: #f0f0f0; stroke-width: 0.35; stroke-linecap: square"/>
     </g>
     <g id="line2d_2">
      <defs>
       <path id="mbc5c16c2de" d="M 0 0 
L 0 2.2 
" style="stroke: #4a4a4a; stroke-width: 0.6"/>
      </defs>
      <g>
       <use xlink:href="#mbc5c16c2de" x="22.167529" y="231.261756" style="fill: #4a4a4a; stroke: #4a4a4a; stroke-width: 0.6"/>
      </g>
     </g>
     <g id="text_1">
      <text style="fill: #4a4a4a; font: 5.89px 'Arial', 'Helvetica', 'Liberation Sans', 'DejaVu Sans'; text-anchor: middle" x="22.167529" y="239.230165" transform="rotate(-0 22.167529 239.230165)">−2.0</text>
     </g>
    </g>
    <g id="xtick_2">
     <g id="line2d_3">
      <path d="M 59.586353 231.261756 
L 59.586353 26.133756 
" clip-path="url(#p56422a4653)" style="fill: none; stroke: #f0f0f0; stroke-width: 0.35; stroke-linecap: square"/>
     </g>
     <g id="line2d_4">
      <g>
       <use xlink:href="#mbc5c16c2de" x="59.586353" y="231.261756" style="fill: #4a4a4a; stroke: #4a4a4a; stroke-width: 0.6"/>
      </g>
     </g>
     <g id="text_2">
      <text style="fill: #4a4a4a; font: 5.89px 'Arial', 'Helvetica', 'Liberation Sans', 'DejaVu Sans'; text-anchor: middle" x="59.586353" y="239.230165" transform="rotate(-0 59.586353 239.230165)">−1.5</text>
     </g>
    </g>
    <g id="xtick_3">
     <g id="line2d_5">
      <path d="M 97.005176 231.261756 
L 97.005176 26.133756 
" clip-path="url(#p56422a4653)" style="fill: none; stroke: #f0f0f0; stroke-width: 0.35; stroke-linecap: square"/>
     </g>
     <g id="line2d_6">
      <g>
       <use xlink:href="#mbc5c16c2de" x="97.005176" y="231.261756" style="fill: #4a4a4a; stroke: #4a4a4a; stroke-width: 0.6"/>
      </g>
     </g>
     <g id="text_3">
      <text style="fill: #4a4a4a; font: 5.89px 'Arial', 'Helvetica', 'Liberation Sans', 'DejaVu Sans'; text-anchor: middle" x="97.005176" y="239.230165" transform="rotate(-0 97.005176 239.230165)">−1.0</text>
     </g>
    </g>
    <g id="xtick_4">
     <g id="line2d_7">
      <path d="M 134.424 231.261756 
L 134.424 26.133756 
" clip-path="url(#p56422a4653)" style="fill: none; stroke: #f0f0f0; stroke-width: 0.35; stroke-linecap: square"/>
     </g>
     <g id="line2d_8">
      <g>
       <use xlink:href="#mbc5c16c2de" x="134.424" y="231.261756" style="fill: #4a4a4a; stroke: #4a4a4a; stroke-width: 0.6"/>
      </g>
     </g>
     <g id="text_4">
      <text style="fill: #4a4a4a; font: 5.89px 'Arial', 'Helvetica', 'Liberation Sans', 'DejaVu Sans'; text-anchor: middle" x="134.424" y="239.230165" transform="rotate(-0 134.424 239.230165)">−0.5</text>
     </g>
    </g>
    <g id="xtick_5">
     <g id="line2d_9">
      <path d="M 171.842824 231.261756 
L 171.842824 26.133756 
" clip-path="url(#p56422a4653)" style="fill: none; stroke: #f0f0f0; stroke-width: 0.35; stroke-linecap: square"/>
     </g>
     <g id="line2d_10">
      <g>
       <use xlink:href="#mbc5c16c2de" x="171.842824" y="231.261756" style="fill: #4a4a4a; stroke: #4a4a4a; stroke-width: 0.6"/>
      </g>
     </g>
     <g id="text_5">
      <text style="fill: #4a4a4a; font: 5.89px 'Arial', 'Helvetica', 'Liberation Sans', 'DejaVu Sans'; text-anchor: middle" x="171.842824" y="239.230165" transform="rotate(-0 171.842824 239.230165)">0.0</text>
     </g>
    </g>
    <g id="xtick_6">
     <g id="line2d_11">
      <path d="M 209.261647 231.261756 
L 209.261647 26.133756 
" clip-path="url(#p56422a4653)" style="fill: none; stroke: #f0f0f0; stroke-width: 0.35; stroke-linecap: square"/>
     </g>
     <g id="line2d_12">
      <g>
       <use xlink:href="#mbc5c16c2de" x="209.261647" y="231.261756" style="fill: #4a4a4a; stroke: #4a4a4a; stroke-width: 0.6"/>
      </g>
     </g>
     <g id="text_6">
      <text style="fill: #4a4a4a; font: 5.89px 'Arial', 'Helvetica', 'Liberation Sans', 'DejaVu Sans'; text-anchor: middle" x="209.261647" y="239.230165" transform="rotate(-0 209.261647 239.230165)">0.5</text>
     </g>
    </g>
    <g id="xtick_7">
     <g id="line2d_13">
      <path d="M 246.680471 231.261756 
L 246.680471 26.133756 
" clip-path="url(#p56422a4653)" style="fill: none; stroke: #f0f0f0; stroke-width: 0.35; stroke-linecap: square"/>
     </g>
     <g id="line2d_14">
      <g>
       <use xlink:href="#mbc5c16c2de" x="246.680471" y="231.261756" style="fill: #4a4a4a; stroke: #4a4a4a; stroke-width: 0.6"/>
      </g>
     </g>
     <g id="text_7">
      <text style="fill: #4a4a4a; font: 5.89px 'Arial', 'Helvetica', 'Liberation Sans', 'DejaVu Sans'; text-anchor: middle" x="246.680471" y="239.230165" transform="rotate(-0 246.680471 239.230165)">1.0</text>
     </g>
    </g>
    <g id="xtick_8">
     <g id="line2d_15">
      <path d="M 284.099294 231.261756 
L 284.099294 26.133756 
" clip-path="url(#p56422a4653)" style="fill: none; stroke: #f0f0f0; stroke-width: 0.35; stroke-linecap: square"/>
     </g>
     <g id="line2d_16">
      <g>
       <use xlink:href="#mbc5c16c2de" x="284.099294" y="231.261756" style="fill: #4a4a4a; stroke: #4a4a4a; stroke-width: 0.6"/>
      </g>
     </g>
     <g id="text_8">
      <text style="fill: #4a4a4a; font: 5.89px 'Arial', 'Helvetica', 'Liberation Sans', 'DejaVu Sans'; text-anchor: middle" x="284.099294" y="239.230165" transform="rotate(-0 284.099294 239.230165)">1.5</text>
     </g>
    </g>
    <g id="xtick_9">
     <g id="line2d_17">
      <path d="M 321.518118 231.261756 
L 321.518118 26.133756 
" clip-path="url(#p56422a4653)" style="fill: none; stroke: #f0f0f0; stroke-width: 0.35; stroke-linecap: square"/>
     </g>
     <g id="line2d_18">
      <g>
       <use xlink:href="#mbc5c16c2de" x="321.518118" y="231.261756" style="fill: #4a4a4a; stroke: #4a4a4a; stroke-width: 0.6"/>
      </g>
     </g>
     <g id="text_9">
      <text style="fill: #4a4a4a; font: 5.89px 'Arial', 'Helvetica', 'Liberation Sans', 'DejaVu Sans'; text-anchor: middle" x="321.518118" y="239.230165" transform="rotate(-0 321.518118 239.230165)">2.0</text>
     </g>
    </g>
    <g id="text_10">
     <text style="fill: #222222; font: 6.65px 'Arial', 'Helvetica', 'Liberation Sans', 'DejaVu Sans'; text-anchor: middle" x="166.23" y="249.271512" transform="rotate(-0 166.23 249.271512)">NES (anchors − middle)</text>
    </g>
   </g>
   <g id="matplotlib.axis_2"/>
   <g id="line2d_19">
    <path d="M 171.842824 231.261756 
L 171.842824 26.133756 
" clip-path="url(#p56422a4653)" style="fill: none; stroke-dasharray: 1.4,1.4; stroke-dashoffset: 0; stroke: #a8a8a8; stroke-width: 0.7"/>
   </g>
   <g id="patch_3">
    <path d="M 7.2 231.261756 
L 7.2 26.133756 
" style="fill: none; stroke: #4a4a4a; stroke-width: 0.6; stroke-linejoin: miter; stroke-linecap: square"/>
   </g>
   <g id="patch_4">
    <path d="M 7.2 231.261756 
L 325.26 231.261756 
" style="fill: none; stroke: #4a4a4a; stroke-width: 0.6; stroke-linejoin: miter; stroke-linecap: square"/>
   </g>
   <g id="text_11">
    <text style="fill: #222222; font: 700 8.17px 'Arial', 'Helvetica', 'Liberation Sans', 'DejaVu Sans'; text-anchor: start" x="7.2" y="13.120697" transform="rotate(-0 7.2 13.120697)">GO BP response-program details</text>
   </g>
   <g id="legend_1">
    <g id="line2d_20">
     <path d="M 332.2709 214.031396 
L 335.6309 214.031396 
L 338.9909 214.031396 
" style="fill: none; stroke: #000000; stroke-opacity: 0; stroke-width: 0.9; stroke-linecap: square"/>
     <defs>
      <path id="m9a2dbfc666" d="M 0 2.5 
C 0.663008 2.5 1.29895 2.236584 1.767767 1.767767 
C 2.236584 1.29895 2.5 0.663008 2.5 0 
C 2.5 -0.663008 2.236584 -1.29895 1.767767 -1.767767 
C 1.29895 -2.236584 0.663008 -2.5 0 -2.5 
C -0.663008 -2.5 -1.29895 -2.236584 -1.767767 -1.767767 
C -2.236584 -1.29895 -2.5 -0.663008 -2.5 0 
C -2.5 0.663008 -2.236584 1.29895 -1.767767 1.767767 
C -1.29895 2.236584 -0.663008 2.5 0 2.5 
z
" style="stroke: #ffffff"/>
     </defs>
     <g>
      <use xlink:href="#m9a2dbfc666" x="335.6309" y="214.031396" style="fill: #3b827a; stroke: #ffffff"/>
     </g>
    </g>
    <g id="text_12">
     <text style="fill: #222222; font: 5.32px 'Arial', 'Helvetica', 'Liberation Sans', 'DejaVu Sans'; text-anchor: start" x="341.2309" y="215.991396" transform="rotate(-0 341.2309 215.991396)">HCC38</text>
    </g>
    <g id="line2d_21">
     <path d="M 332.2709 221.855296 
L 335.6309 221.855296 
L 338.9909 221.855296 
" style="fill: none; stroke: #000000; stroke-opacity: 0; stroke-width: 0.9; stroke-linecap: square"/>
     <defs>
      <path id="mdbace45859" d="M 0 2.5 
C 0.663008 2.5 1.29895 2.236584 1.767767 1.767767 
C 2.236584 1.29895 2.5 0.663008 2.5 0 
C 2.5 -0.663008 2.236584 -1.29895 1.767767 -1.767767 
C 1.29895 -2.236584 0.663008 -2.5 0 -2.5 
C -0.663008 -2.5 -1.29895 -2.236584 -1.767767 -1.767767 
C -2.236584 -1.29895 -2.5 -0.663008 -2.5 0 
C -2.5 0.663008 -2.236584 1.29895 -1.767767 1.767767 
C -1.29895 2.236584 -0.663008 2.5 0 2.5 
z
" style="stroke: #ffffff"/>
     </defs>
     <g>
      <use xlink:href="#mdbace45859" x="335.6309" y="221.855296" style="fill: #73729f; stroke: #ffffff"/>
     </g>
    </g>
    <g id="text_13">
     <text style="fill: #222222; font: 5.32px 'Arial', 'Helvetica', 'Liberation Sans', 'DejaVu Sans'; text-anchor: start" x="341.2309" y="223.815296" transform="rotate(-0 341.2309 223.815296)">HCC1143</text>
    </g>
   </g>
   <g id="legend_2">
    <g id="text_14">
     <text style="fill: #222222; font: 4.94px 'Arial', 'Helvetica', 'Liberation Sans', 'DejaVu Sans'; text-anchor: start" x="332.0709" y="35.856272" transform="rotate(-0 332.0709 35.856272)">−log10(FDR)</text>
    </g>
    <g id="PathCollection_4">
     <defs>
      <path id="mdcf5492406" d="M 0 2.54951 
C 0.676138 2.54951 1.324674 2.280877 1.802776 1.802776 
C 2.280877 1.324674 2.54951 0.676138 2.54951 0 
C 2.54951 -0.676138 2.280877 -1.324674 1.802776 -1.802776 
C 1.324674 -2.280877 0.676138 -2.54951 0 -2.54951 
C -0.676138 -2.54951 -1.324674 -2.280877 -1.802776 -1.802776 
C -2.280877 -1.324674 -2.54951 -0.676138 -2.54951 0 
C -2.54951 0.676138 -2.280877 1.324674 -1.802776 1.802776 
C -1.324674 2.280877 -0.676138 2.54951 0 2.54951 
z
" style="stroke: #4d4d4d; stroke-width: 0.3"/>
     </defs>
     <g>
      <use xlink:href="#mdcf5492406" x="343.417778" y="41.458291" style="fill: #cfcfcf; stroke: #4d4d4d; stroke-width: 0.3"/>
     </g>
    </g>
    <g id="text_15">
     <text style="fill: #222222; font: 5.7px 'Arial', 'Helvetica', 'Liberation Sans', 'DejaVu Sans'; text-anchor: start" x="349.027778" y="42.797041" transform="rotate(-0 349.027778 42.797041)">1</text>
    </g>
    <g id="PathCollection_5">
     <defs>
      <path id="me6a126303f" d="M 0 2.915476 
C 0.773193 2.915476 1.514823 2.608283 2.061553 2.061553 
C 2.608283 1.514823 2.915476 0.773193 2.915476 0 
C 2.915476 -0.773193 2.608283 -1.514823 2.061553 -2.061553 
C 1.514823 -2.608283 0.773193 -2.915476 0 -2.915476 
C -0.773193 -2.915476 -1.514823 -2.608283 -2.061553 -2.061553 
C -2.608283 -1.514823 -2.915476 -0.773193 -2.915476 0 
C -2.915476 0.773193 -2.608283 1.514823 -2.061553 2.061553 
C -1.514823 2.608283 -0.773193 2.915476 0 2.915476 
z
" style="stroke: #4d4d4d; stroke-width: 0.3"/>
     </defs>
     <g>
      <use xlink:href="#me6a126303f" x="343.417778" y="48.556759" style="fill: #cfcfcf; stroke: #4d4d4d; stroke-width: 0.3"/>
     </g>
    </g>
    <g id="text_16">
     <text style="fill: #222222; font: 5.7px 'Arial', 'Helvetica', 'Liberation Sans', 'DejaVu Sans'; text-anchor: start" x="349.027778" y="49.895509" transform="rotate(-0 349.027778 49.895509)">2</text>
    </g>
    <g id="PathCollection_6">
     <defs>
      <path id="m96192ac2bd" d="M 0 3.535534 
C 0.937635 3.535534 1.836992 3.163008 2.5 2.5 
C 3.163008 1.836992 3.535534 0.937635 3.535534 0 
C 3.535534 -0.937635 3.163008 -1.836992 2.5 -2.5 
C 1.836992 -3.163008 0.937635 -3.535534 0 -3.535534 
C -0.937635 -3.535534 -1.836992 -3.163008 -2.5 -2.5 
C -3.163008 -1.836992 -3.535534 -0.937635 -3.535534 0 
C -3.535534 0.937635 -3.163008 1.836992 -2.5 2.5 
C -1.836992 3.163008 -0.937635 3.535534 0 3.535534 
z
" style="stroke: #4d4d4d; stroke-width: 0.3"/>
     </defs>
     <g>
      <use xlink:href="#m96192ac2bd" x="343.417778" y="55.655228" style="fill: #cfcfcf; stroke: #4d4d4d; stroke-width: 0.3"/>
     </g>
    </g>
    <g id="text_17">
     <text style="fill: #222222; font: 5.7px 'Arial', 'Helvetica', 'Liberation Sans', 'DejaVu Sans'; text-anchor: start" x="349.027778" y="56.993978" transform="rotate(-0 349.027778 56.993978)">4</text>
    </g>
   </g>
  </g>
 </g>
 <defs>
  <clipPath id="p56422a4653">
   <rect x="7.2" y="26.133756" width="318.06" height="205.128"/>
  </clipPath>
 </defs>
</svg>
